<svg width="800" height="800" viewBox="0 0 800 800" fill="none" xmlns="http://www.w3.org/2000/svg">
<rect width="800" height="800" fill="white"/>
<g filter="url(#filter0_dd_320_7)">
<path d="M686.857 273.861C680.819 283.77 673.718 292.965 665.696 301.275C663.279 303.776 660.768 306.202 658.191 308.552C656.855 309.774 655.491 310.959 654.109 312.124C649.594 315.951 644.864 319.514 639.926 322.814C638.882 323.509 637.612 323.801 636.371 323.65C629.74 322.832 623.044 322.231 616.301 321.845C615.642 321.798 614.984 321.761 614.316 321.742C613.884 321.723 613.451 321.695 612.999 321.676C610.968 321.573 608.927 321.497 606.877 321.441C603.829 321.347 600.745 321.3 597.66 321.3C595.224 321.3 592.779 321.319 590.343 321.403C583.355 321.554 576.423 321.939 569.557 322.55C568.984 322.597 568.41 322.738 567.883 322.973C567.112 323.321 566.36 323.716 565.617 324.12C565.222 324.346 564.817 324.581 564.432 324.797C558.375 328.492 553.644 334.104 551.086 340.817C550.221 343.083 549.609 345.452 549.271 347.896C549.064 349.353 548.97 350.829 548.97 352.343C548.97 357.194 550.033 361.791 551.97 365.928C556.231 375.047 599.249 395.56 602.033 398.268C606.322 402.442 610.328 406.804 613.987 411.364C614.382 411.843 614.777 412.322 615.144 412.821C616.432 414.466 632.901 440.545 637.217 452.719C637.932 454.759 638.797 456.753 639.221 458.849C640.801 466.708 639.569 473.308 636.004 478.977C635.327 480.049 634.546 481.064 633.709 482.014C632.872 482.963 631.998 483.941 631.123 484.881C603.463 514.824 563.839 533.589 519.842 533.589C481.084 533.589 445.74 519.036 418.945 495.1C411.242 488.209 404.235 480.538 398.075 472.227C394.323 466.784 391.059 460.993 388.313 454.91C382.764 442.594 379.359 429.113 378.625 414.927V414.908C378.673 413.112 378.738 411.317 378.851 409.549C379.237 401.436 379.933 393.417 380.939 385.491C384.015 361.33 389.865 338.015 398.197 315.913C402.307 304.998 407.019 294.375 412.296 284.09C414.139 280.452 416.048 276.879 418.051 273.354C419.077 271.539 420.29 269.387 421.654 266.98C433.993 245.216 458.531 202.177 461.597 193.951C473.729 161.282 496.16 133.614 524.949 114.878C528.683 112.452 533.536 115.367 533.103 119.795C532.313 127.626 531.909 135.579 531.909 143.608V153.253C531.909 153.864 532.671 154.137 533.056 153.648C539.64 145.629 547.145 138.381 555.403 132.073C559.259 129.13 564.676 132.439 563.811 137.215C563.529 138.729 563.275 140.252 563.021 141.784C561.356 151.89 560.35 162.194 560.03 172.686C559.964 175.149 561.638 177.32 564.018 177.903C575.915 180.827 587.164 185.321 597.566 191.187C599.118 192.052 600.086 193.688 600.18 195.465C600.942 210.873 607.215 224.825 617.072 235.401C626.834 245.874 681.901 263.295 686.03 267.299C687.817 269.02 688.136 271.746 686.848 273.852L686.857 273.861Z" fill="url(#paint0_linear_320_7)"/>
<path d="M526.311 116.975C528.312 115.674 530.835 117.236 530.616 119.544C529.817 127.458 529.409 135.495 529.409 143.607V153.254C529.409 156.196 533.108 157.55 534.987 155.232L534.989 155.234C541.45 147.364 548.816 140.251 556.92 134.06L556.919 134.059C558.96 132.502 561.799 134.238 561.353 136.757C561.209 137.528 561.073 138.3 560.941 139.07L560.554 141.375V141.378C558.977 150.955 557.984 160.707 557.6 170.624L557.532 172.609L557.531 172.619C557.433 176.266 559.909 179.471 563.423 180.332V180.331C574.732 183.11 585.442 187.335 595.378 192.829L596.337 193.365L596.348 193.371C597.104 193.793 597.629 194.623 597.683 195.587V195.588C598.45 211.107 604.597 225.205 614.293 236.064L615.243 237.105C616.699 238.668 618.861 240.227 621.371 241.751C623.914 243.295 626.962 244.891 630.302 246.494C636.983 249.702 644.977 253.012 652.74 256.099C660.617 259.231 667.989 262.031 673.957 264.42C676.897 265.597 679.378 266.628 681.24 267.481C682.172 267.909 682.917 268.277 683.471 268.584C683.748 268.737 683.956 268.863 684.107 268.964C684.188 269.018 684.239 269.055 684.267 269.077L684.289 269.094L684.295 269.101C685.22 269.991 685.404 271.421 684.715 272.547L683.689 274.225L683.691 274.227C677.976 283.344 671.341 291.828 663.898 299.538C661.818 301.69 659.664 303.788 657.456 305.832L656.506 306.705L656.502 306.708C655.524 307.603 654.528 308.48 653.515 309.348L652.498 310.213L652.493 310.217C648.052 313.98 643.398 317.486 638.54 320.733C638.004 321.09 637.334 321.248 636.671 321.168H636.67C629.998 320.345 623.261 319.74 616.478 319.352H616.479C615.809 319.304 615.125 319.265 614.423 319.244H614.424C614.224 319.235 614.021 319.225 613.799 319.213C613.581 319.201 613.346 319.188 613.103 319.178H613.102C611.058 319.074 609.008 318.999 606.953 318.942H606.954C603.88 318.848 600.77 318.8 597.66 318.8C595.825 318.8 593.972 318.811 592.115 318.853L590.289 318.904C584.125 319.037 578.005 319.351 571.934 319.84L569.353 320.059C568.619 320.119 567.876 320.284 567.167 320.563L566.865 320.69L566.856 320.694C565.999 321.081 565.182 321.511 564.422 321.925L564.399 321.937L564.376 321.949C563.958 322.188 563.584 322.406 563.208 322.616L563.169 322.639L563.129 322.663C556.608 326.641 551.509 332.687 548.75 339.925C547.819 342.365 547.16 344.915 546.795 347.545C546.57 349.131 546.47 350.725 546.47 352.343C546.47 357.237 547.476 361.901 549.325 366.145L549.706 366.988C550.457 368.596 551.906 370.187 553.552 371.678C555.252 373.217 557.389 374.845 559.772 376.5C564.542 379.813 570.484 383.362 576.321 386.676C582.163 389.993 587.964 393.112 592.44 395.55C594.687 396.774 596.587 397.819 598.007 398.64C598.719 399.05 599.287 399.392 599.708 399.662C600.184 399.967 600.317 400.085 600.29 400.059V400.06C604.512 404.169 608.448 408.456 612.037 412.928L612.047 412.94L612.057 412.953C612.46 413.442 612.811 413.869 613.13 414.303L613.153 414.333L613.175 414.362C613.177 414.364 613.184 414.374 613.198 414.393C613.214 414.415 613.237 414.446 613.265 414.486C613.322 414.567 613.395 414.674 613.486 414.808C613.667 415.075 613.904 415.432 614.19 415.872C614.762 416.751 615.519 417.939 616.41 419.362C618.19 422.21 620.491 425.983 622.886 430.083C627.566 438.094 632.476 447.138 634.659 452.998L634.861 453.555C635.606 455.681 636.3 457.266 636.695 458.995L636.77 459.344C638.235 466.631 637.081 472.566 633.891 477.642C633.296 478.584 632.598 479.494 631.834 480.36C631.212 481.066 630.573 481.783 629.933 482.483L629.292 483.178L629.287 483.185C602.08 512.637 563.113 531.089 519.842 531.089C481.722 531.089 446.966 516.778 420.611 493.235H420.61C413.044 486.467 406.163 478.933 400.111 470.774C396.683 465.798 393.672 460.523 391.101 454.993L390.591 453.881C385.177 441.863 381.853 428.713 381.127 414.875C381.162 413.573 381.207 412.282 381.272 411.008L381.346 409.708L381.347 409.688L381.348 409.668C381.683 402.625 382.253 395.655 383.059 388.758L383.419 385.807C386.375 362.589 391.912 340.161 399.769 318.854L400.537 316.795V316.794C404.358 306.645 408.705 296.75 413.545 287.147L414.52 285.231L414.526 285.22C416.124 282.065 417.771 278.962 419.486 275.899L420.225 274.589L420.228 274.584C421.255 272.766 422.465 270.617 423.828 268.212L423.829 268.213C429.995 257.337 439.222 241.123 447.289 226.603C451.322 219.343 455.071 212.495 458.007 206.94C460.728 201.793 462.828 197.617 463.767 195.27L463.939 194.824L463.941 194.821C475.884 162.663 497.965 135.422 526.31 116.974L526.311 116.975Z" stroke="white" stroke-width="5"/>
</g>
<g filter="url(#filter1_dd_320_7)">
<path d="M644.299 504.21C616.075 587.429 539.264 656.641 438.263 678.612C315.518 705.32 196.28 653.745 145.145 559.912C159.318 572.171 177.056 582.08 197.334 588.172C206.419 590.898 215.504 592.713 224.439 593.662C173.548 563.212 134.545 513.179 119.535 451.347C119.479 451.112 119.422 450.867 119.356 450.623C118.98 449.072 118.632 447.511 118.284 445.941C91.3951 322.428 169.767 200.485 293.34 173.607C342.36 162.937 391.144 168.831 433.824 187.549C435.676 188.348 437.52 189.185 439.354 190.05C427.137 194.44 415.568 199.987 404.771 206.539C336.331 248.018 298.447 329.723 316.42 412.266C335.644 500.562 412.596 561.435 499.057 563.917C514.397 564.359 530.047 562.958 545.725 559.545C584.314 551.15 617.664 531.736 643.199 505.338C643.566 504.962 643.933 504.586 644.299 504.21Z" fill="url(#paint1_linear_320_7)"/>
<path d="M644.299 504.21C616.075 587.429 539.264 656.641 438.263 678.612C315.518 705.32 196.28 653.745 145.145 559.912C159.318 572.171 177.056 582.08 197.334 588.172C206.419 590.898 215.504 592.713 224.439 593.662C173.548 563.212 134.545 513.179 119.535 451.347C119.479 451.112 119.422 450.867 119.356 450.623C118.98 449.072 118.632 447.511 118.284 445.941C91.3951 322.428 169.767 200.485 293.34 173.607C342.36 162.937 391.144 168.831 433.824 187.549C435.676 188.348 437.52 189.185 439.354 190.05C427.137 194.44 415.568 199.987 404.771 206.539C336.331 248.018 298.447 329.723 316.42 412.266C335.644 500.562 412.596 561.435 499.057 563.917C514.397 564.359 530.047 562.958 545.725 559.545C584.314 551.15 617.664 531.736 643.199 505.338C643.566 504.962 643.933 504.586 644.299 504.21Z" stroke="white" stroke-width="5" stroke-miterlimit="10"/>
</g>
<g filter="url(#filter2_dd_320_7)">
<path d="M242.046 344.483C270.952 344.483 294.385 321.06 294.385 292.166C294.385 263.271 270.952 239.848 242.046 239.848C213.14 239.848 189.707 263.271 189.707 292.166C189.707 321.06 213.14 344.483 242.046 344.483Z" fill="white" stroke="#4BDF9A" stroke-width="4" stroke-miterlimit="10"/>
<path d="M216.266 511.317C249.146 511.317 275.8 484.674 275.8 451.808C275.8 418.941 249.146 392.298 216.266 392.298C183.387 392.298 156.732 418.941 156.732 451.808C156.732 484.674 183.387 511.317 216.266 511.317Z" fill="white" stroke="#4BDF9A" stroke-width="4" stroke-miterlimit="10"/>
<path d="M323.823 633.674C354.1 633.674 378.645 609.139 378.645 578.874C378.645 548.609 354.1 524.075 323.823 524.075C293.545 524.075 269 548.609 269 578.874C269 609.139 293.545 633.674 323.823 633.674Z" fill="white" stroke="#4BDF9A" stroke-width="4" stroke-miterlimit="10"/>
<path d="M163.974 371.183C172.95 371.183 180.226 363.91 180.226 354.938C180.226 345.966 172.95 338.692 163.974 338.692C154.998 338.692 147.722 345.966 147.722 354.938C147.722 363.91 154.998 371.183 163.974 371.183Z" fill="white" stroke="#4BDF9A" stroke-width="4" stroke-miterlimit="10"/>
<path d="M303.14 504.078C311.316 504.078 317.944 497.453 317.944 489.281C317.944 481.108 311.316 474.483 303.14 474.483C294.965 474.483 288.337 481.108 288.337 489.281C288.337 497.453 294.965 504.078 303.14 504.078Z" fill="white" stroke="#4BDF9A" stroke-width="4" stroke-miterlimit="10"/>
<path d="M427.671 612.635C438.023 612.635 446.415 604.246 446.415 593.898C446.415 583.551 438.023 575.162 427.671 575.162C417.319 575.162 408.927 583.551 408.927 593.898C408.927 604.246 417.319 612.635 427.671 612.635Z" fill="white" stroke="#4BDF9A" stroke-width="4" stroke-miterlimit="10"/>
<path d="M490.412 634.07C499.617 634.07 507.078 626.611 507.078 617.411C507.078 608.21 499.617 600.752 490.412 600.752C481.208 600.752 473.747 608.21 473.747 617.411C473.747 626.611 481.208 634.07 490.412 634.07Z" fill="white" stroke="#4BDF9A" stroke-width="4" stroke-miterlimit="10"/>
<path d="M399.917 662.02C407.635 662.02 413.893 655.765 413.893 648.049C413.893 640.334 407.635 634.079 399.917 634.079C392.198 634.079 385.941 640.334 385.941 648.049C385.941 655.765 392.198 662.02 399.917 662.02Z" fill="white" stroke="#4BDF9A" stroke-width="4" stroke-miterlimit="10"/>
<path d="M341.137 223.574C351.089 223.574 359.157 215.51 359.157 205.562C359.157 195.614 351.089 187.549 341.137 187.549C331.185 187.549 323.117 195.614 323.117 205.562C323.117 215.51 331.185 223.574 341.137 223.574Z" fill="white" stroke="#4BDF9A" stroke-width="4" stroke-miterlimit="10"/>
<path d="M281.707 226.395C288.184 226.395 293.435 221.146 293.435 214.672C293.435 208.197 288.184 202.948 281.707 202.948C275.229 202.948 269.979 208.197 269.979 214.672C269.979 221.146 275.229 226.395 281.707 226.395Z" fill="white" stroke="#4BDF9A" stroke-width="4" stroke-miterlimit="10"/>
<path d="M444.837 600.347L474.492 611.261" stroke="#4BDF9A" stroke-width="4" stroke-miterlimit="10"/>
<path d="M406.013 635.216L418.842 610.18" stroke="#4BDF9A" stroke-width="4" stroke-miterlimit="10"/>
<path d="M306.423 503.486L311.342 524.808" stroke="#4BDF9A" stroke-width="4" stroke-miterlimit="10"/>
<path d="M270.947 475.395L289.541 483.414" stroke="#4BDF9A" stroke-width="4" stroke-miterlimit="10"/>
<path d="M201.143 324.807L176.445 344.512" stroke="#4BDF9A" stroke-width="4" stroke-miterlimit="10"/>
<path d="M275.443 224.919L265.323 245.291" stroke="#4BDF9A" stroke-width="4" stroke-miterlimit="10"/>
<path d="M323.202 207.216L293.068 211.776" stroke="#4BDF9A" stroke-width="4" stroke-miterlimit="10"/>
<path d="M154.842 319.335C158.774 319.335 161.961 316.149 161.961 312.218C161.961 308.288 158.774 305.102 154.842 305.102C150.91 305.102 147.722 308.288 147.722 312.218C147.722 316.149 150.91 319.335 154.842 319.335Z" fill="white" stroke="#4BDF9A" stroke-width="4" stroke-miterlimit="10"/>
<path d="M313.392 246.965C317.324 246.965 320.512 243.778 320.512 239.848C320.512 235.917 317.324 232.731 313.392 232.731C309.46 232.731 306.272 235.917 306.272 239.848C306.272 243.778 309.46 246.965 313.392 246.965Z" fill="white" stroke="#4BDF9A" stroke-width="4" stroke-miterlimit="10"/>
<path d="M236.335 559.349C243.342 559.349 249.022 553.671 249.022 546.667C249.022 539.663 243.342 533.985 236.335 533.985C229.328 533.985 223.647 539.663 223.647 546.667C223.647 553.671 229.328 559.349 236.335 559.349Z" fill="white" stroke="#4BDF9A" stroke-width="4" stroke-miterlimit="10"/>
<path d="M196.826 541.392C200.758 541.392 203.946 538.205 203.946 534.275C203.946 530.344 200.758 527.158 196.826 527.158C192.894 527.158 189.707 530.344 189.707 534.275C189.707 538.205 192.894 541.392 196.826 541.392Z" fill="white" stroke="#4BDF9A" stroke-width="4" stroke-miterlimit="10"/>
<path d="M252.323 631.644C256.255 631.644 259.443 628.458 259.443 624.528C259.443 620.597 256.255 617.411 252.323 617.411C248.391 617.411 245.204 620.597 245.204 624.528C245.204 628.458 248.391 631.644 252.323 631.644Z" fill="white" stroke="#4BDF9A" stroke-width="4" stroke-miterlimit="10"/>
<path d="M540.062 600.752C543.994 600.752 547.181 597.566 547.181 593.635C547.181 589.705 543.994 586.519 540.062 586.519C536.129 586.519 532.942 589.705 532.942 593.635C532.942 597.566 536.129 600.752 540.062 600.752Z" fill="white" stroke="#4BDF9A" stroke-width="4" stroke-miterlimit="10"/>
<path d="M335.804 511.195C339.736 511.195 342.924 508.009 342.924 504.078C342.924 500.148 339.736 496.962 335.804 496.962C331.872 496.962 328.685 500.148 328.685 504.078C328.685 508.009 331.872 511.195 335.804 511.195Z" fill="white" stroke="#4BDF9A" stroke-width="4" stroke-miterlimit="10"/>
<path d="M228.634 510.039L233.637 533.814" stroke="#4BDF9A" stroke-width="4" stroke-miterlimit="10"/>
<path d="M203.4 537.02L223.536 544.146" stroke="#4BDF9A" stroke-width="4" stroke-miterlimit="10"/>
<path d="M257.931 620.127L278.01 608.986" stroke="#4BDF9A" stroke-width="4" stroke-miterlimit="10"/>
<path d="M533.357 596.304L505.095 609.654" stroke="#4BDF9A" stroke-width="4" stroke-miterlimit="10"/>
<path d="M156.008 319.232L160.334 339.106" stroke="#4BDF9A" stroke-width="4" stroke-miterlimit="10"/>
<path d="M147.722 314.052L124.783 324.835" stroke="#4BDF9A" stroke-width="4" stroke-miterlimit="10"/>
<path d="M388.915 638.694L363.662 616.526" stroke="#4BDF9A" stroke-width="4" stroke-miterlimit="10"/>
<path d="M495.784 632.696L505.302 656.434" stroke="#4BDF9A" stroke-width="4" stroke-miterlimit="10"/>
<path d="M539.781 586.123V560.749" stroke="#4BDF9A" stroke-width="4" stroke-miterlimit="10"/>
<path d="M289.607 223.321L307.486 235.862" stroke="#4BDF9A" stroke-width="4" stroke-miterlimit="10"/>
<path d="M330.895 220.378L318.461 234.856" stroke="#4BDF9A" stroke-width="4" stroke-miterlimit="10"/>
<path d="M268.003 180.639L277.202 203.841" stroke="#4BDF9A" stroke-width="4" stroke-miterlimit="10"/>
<path d="M247.895 629.575L234.239 649.449" stroke="#4BDF9A" stroke-width="4" stroke-miterlimit="10"/>
<path d="M191.653 539.154L177.132 554.431" stroke="#4BDF9A" stroke-width="4" stroke-miterlimit="10"/>
<path d="M288.337 414.917C292.269 414.917 295.457 411.731 295.457 407.8C295.457 403.87 292.269 400.684 288.337 400.684C284.405 400.684 281.217 403.87 281.217 407.8C281.217 411.731 284.405 414.917 288.337 414.917Z" stroke="#4BDF9A" stroke-width="4" stroke-miterlimit="10"/>
<path d="M288.337 414.917C292.269 414.917 295.457 411.731 295.457 407.8C295.457 403.87 292.269 400.684 288.337 400.684C284.405 400.684 281.217 403.87 281.217 407.8C281.217 411.731 284.405 414.917 288.337 414.917Z" fill="white" stroke="#4BDF9A" stroke-width="4" stroke-miterlimit="10"/>
<path d="M280.249 383.188C288.425 383.188 295.052 376.563 295.052 368.391C295.052 360.218 288.425 353.593 280.249 353.593C272.073 353.593 265.445 360.218 265.445 368.391C265.445 376.563 272.073 383.188 280.249 383.188Z" fill="white" stroke="#4BDF9A" stroke-width="4" stroke-miterlimit="10"/>
<path d="M267.129 338.1L273.938 354.317" stroke="#4BDF9A" stroke-width="4" stroke-miterlimit="10"/>
<path d="M283.597 382.803L287.378 400.75" stroke="#4BDF9A" stroke-width="4" stroke-miterlimit="10"/>
<path d="M272.8 381.176L252.72 404.764" stroke="#4BDF9A" stroke-width="4" stroke-miterlimit="10"/>
<path d="M316.364 495.937L328.685 500.872" stroke="#4BDF9A" stroke-width="4" stroke-miterlimit="10"/>
</g>
<g filter="url(#filter3_dd_320_7)">
<path d="M644.299 504.21C616.075 587.429 539.264 656.641 438.263 678.612C315.518 705.32 196.28 653.745 145.145 559.912C159.318 572.171 177.056 582.08 197.334 588.172C206.419 590.898 215.504 592.713 224.439 593.662C173.548 563.212 134.545 513.179 119.535 451.347C119.479 451.112 119.422 450.867 119.356 450.623C118.98 449.072 118.632 447.511 118.284 445.941C91.3951 322.428 169.767 200.485 293.34 173.607C342.36 162.937 391.144 168.831 433.824 187.549C435.676 188.348 437.52 189.185 439.354 190.05C427.137 194.44 415.568 199.987 404.771 206.539C336.331 248.018 298.447 329.723 316.42 412.266C335.644 500.562 412.596 561.435 499.057 563.917C514.397 564.359 530.047 562.958 545.725 559.545C584.314 551.15 617.664 531.736 643.199 505.338C643.566 504.962 643.933 504.586 644.299 504.21Z" stroke="white" stroke-width="5" stroke-miterlimit="10" shape-rendering="crispEdges"/>
</g>
<g filter="url(#filter4_dd_320_7)">
<path d="M294.647 573.985C294.647 560.73 305.393 549.985 318.647 549.985H326.647C339.902 549.985 350.647 560.73 350.647 573.985V600.985C350.647 603.746 348.409 605.985 345.647 605.985H318.647C305.393 605.985 294.647 595.239 294.647 581.985V573.985Z" fill="#4BDF9A"/>
</g>
<path d="M308.647 571.985H335.647" stroke="white" stroke-width="3" stroke-linecap="round"/>
<path d="M308.647 582.985H328.647" stroke="white" stroke-width="3" stroke-linecap="round"/>
<path d="M308.647 571.985H335.647" stroke="white" stroke-width="3" stroke-linecap="round"/>
<path d="M308.647 582.985H328.647" stroke="white" stroke-width="3" stroke-linecap="round"/>
<g filter="url(#filter5_dd_320_7)">
<path d="M217.647 273.985C217.647 267.357 223.02 261.985 229.647 261.985H241.647C253.798 261.985 263.647 271.834 263.647 283.985V308.985C263.647 315.612 258.275 320.985 251.647 320.985H229.647C223.02 320.985 217.647 315.612 217.647 308.985V273.985Z" fill="#4BDF9A"/>
<path d="M225.647 301.985H254.647" stroke="white" stroke-width="3" stroke-linecap="round"/>
<path d="M225.647 309.985H247.647" stroke="white" stroke-width="3" stroke-linecap="round"/>
<path d="M225.647 285.985H254.647" stroke="white" stroke-width="3" stroke-linecap="round"/>
<path d="M225.647 293.985H247.647" stroke="white" stroke-width="3" stroke-linecap="round"/>
<path d="M259.146 267.412C261.718 269.984 263.004 271.27 263.207 272.554C263.385 273.674 263.079 274.816 262.365 275.697C261.547 276.707 259.79 277.178 256.277 278.119L254.838 278.505C251.324 279.447 249.567 279.917 248.354 279.452C247.295 279.045 246.459 278.209 246.053 277.151C245.587 275.937 246.058 274.18 246.999 270.667L247.385 269.228C248.326 265.714 248.797 263.957 249.807 263.139C250.688 262.426 251.83 262.119 252.95 262.297C254.234 262.5 255.52 263.786 258.092 266.359L259.146 267.412Z" fill="#0BBD94"/>
</g>
<g filter="url(#filter6_dd_320_7)">
<rect x="179.647" y="420.985" width="73" height="62" rx="15" fill="#D9D9D9"/>
<rect x="179.647" y="420.985" width="73" height="62" rx="15" fill="#4BDF9A"/>
<rect x="212.647" y="443.985" width="18" height="14" rx="4" fill="white"/>
<path d="M181.647 435.985C181.647 428.805 187.468 422.985 194.647 422.985H237.647C244.827 422.985 250.647 428.805 250.647 435.985V436.985C250.647 439.194 248.857 440.985 246.647 440.985H185.647C183.438 440.985 181.647 439.194 181.647 436.985V435.985Z" fill="#0BBD94"/>
<path d="M227.647 467.985C227.647 465.775 229.438 463.985 231.647 463.985H242.647C244.857 463.985 246.647 465.775 246.647 467.985V469.985C246.647 474.403 243.066 477.985 238.647 477.985H231.647C229.438 477.985 227.647 476.194 227.647 473.985V467.985Z" fill="white"/>
<path d="M185.647 469.985C185.647 468.88 186.543 467.985 187.647 467.985H205.647C206.752 467.985 207.647 468.88 207.647 469.985V475.985C207.647 477.089 206.752 477.985 205.647 477.985H193.647C189.229 477.985 185.647 474.403 185.647 469.985V469.985Z" fill="#0BBD94"/>
<rect x="212.647" y="459.985" width="13" height="18" rx="4" fill="white"/>
<rect x="233.647" y="443.985" width="13" height="18" rx="4" fill="white"/>
<path d="M186.647 444.985H206.647" stroke="white" stroke-width="2" stroke-linecap="round"/>
<path d="M186.647 449.985H203.647" stroke="white" stroke-width="2" stroke-linecap="round"/>
<path d="M186.647 454.985H206.647" stroke="white" stroke-width="2" stroke-linecap="round"/>
<path d="M186.647 458.985H203.647" stroke="white" stroke-width="2" stroke-linecap="round"/>
<path d="M186.647 463.985H206.647" stroke="white" stroke-width="2" stroke-linecap="round"/>
</g>
<defs>
<filter id="filter0_dd_320_7" x="365.625" y="101" width="335.006" height="445.589" filterUnits="userSpaceOnUse" color-interpolation-filters="sRGB">
<feFlood flood-opacity="0" result="BackgroundImageFix"/>
<feColorMatrix in="SourceAlpha" type="matrix" values="0 0 0 0 0 0 0 0 0 0 0 0 0 0 0 0 0 0 127 0" result="hardAlpha"/>
<feOffset dx="3" dy="3"/>
<feGaussianBlur stdDeviation="5"/>
<feComposite in2="hardAlpha" operator="out"/>
<feColorMatrix type="matrix" values="0 0 0 0 0 0 0 0 0 0 0 0 0 0 0 0 0 0 0.25 0"/>
<feBlend mode="normal" in2="BackgroundImageFix" result="effect1_dropShadow_320_7"/>
<feColorMatrix in="SourceAlpha" type="matrix" values="0 0 0 0 0 0 0 0 0 0 0 0 0 0 0 0 0 0 127 0" result="hardAlpha"/>
<feOffset dx="-3" dy="-3"/>
<feGaussianBlur stdDeviation="5"/>
<feComposite in2="hardAlpha" operator="out"/>
<feColorMatrix type="matrix" values="0 0 0 0 0 0 0 0 0 0 0 0 0 0 0 0 0 0 0.25 0"/>
<feBlend mode="normal" in2="effect1_dropShadow_320_7" result="effect2_dropShadow_320_7"/>
<feBlend mode="normal" in="SourceGraphic" in2="effect2_dropShadow_320_7" result="shape"/>
</filter>
<filter id="filter1_dd_320_7" x="77.4995" y="132.82" width="605.709" height="588.315" filterUnits="userSpaceOnUse" color-interpolation-filters="sRGB">
<feFlood flood-opacity="0" result="BackgroundImageFix"/>
<feColorMatrix in="SourceAlpha" type="matrix" values="0 0 0 0 0 0 0 0 0 0 0 0 0 0 0 0 0 0 127 0" result="hardAlpha"/>
<feOffset dx="3" dy="3"/>
<feGaussianBlur stdDeviation="15"/>
<feComposite in2="hardAlpha" operator="out"/>
<feColorMatrix type="matrix" values="0 0 0 0 0 0 0 0 0 0 0 0 0 0 0 0 0 0 0.25 0"/>
<feBlend mode="normal" in2="BackgroundImageFix" result="effect1_dropShadow_320_7"/>
<feColorMatrix in="SourceAlpha" type="matrix" values="0 0 0 0 0 0 0 0 0 0 0 0 0 0 0 0 0 0 127 0" result="hardAlpha"/>
<feOffset dx="-3" dy="-3"/>
<feGaussianBlur stdDeviation="15"/>
<feComposite in2="hardAlpha" operator="out"/>
<feColorMatrix type="matrix" values="0 0 0 0 0 0 0 0 0 0 0 0 0 0 0 0 0 0 0.25 0"/>
<feBlend mode="normal" in2="effect1_dropShadow_320_7" result="effect2_dropShadow_320_7"/>
<feBlend mode="normal" in="SourceGraphic" in2="effect2_dropShadow_320_7" result="shape"/>
</filter>
<filter id="filter2_dd_320_7" x="110.932" y="166.902" width="451.249" height="510.118" filterUnits="userSpaceOnUse" color-interpolation-filters="sRGB">
<feFlood flood-opacity="0" result="BackgroundImageFix"/>
<feColorMatrix in="SourceAlpha" type="matrix" values="0 0 0 0 0 0 0 0 0 0 0 0 0 0 0 0 0 0 127 0" result="hardAlpha"/>
<feOffset dx="-3" dy="-3"/>
<feGaussianBlur stdDeviation="5"/>
<feComposite in2="hardAlpha" operator="out"/>
<feColorMatrix type="matrix" values="0 0 0 0 0 0 0 0 0 0 0 0 0 0 0 0 0 0 0.1 0"/>
<feBlend mode="normal" in2="BackgroundImageFix" result="effect1_dropShadow_320_7"/>
<feColorMatrix in="SourceAlpha" type="matrix" values="0 0 0 0 0 0 0 0 0 0 0 0 0 0 0 0 0 0 127 0" result="hardAlpha"/>
<feOffset dx="3" dy="3"/>
<feGaussianBlur stdDeviation="5"/>
<feComposite in2="hardAlpha" operator="out"/>
<feColorMatrix type="matrix" values="0 0 0 0 0 0 0 0 0 0 0 0 0 0 0 0 0 0 0.1 0"/>
<feBlend mode="normal" in2="effect1_dropShadow_320_7" result="effect2_dropShadow_320_7"/>
<feBlend mode="normal" in="SourceGraphic" in2="effect2_dropShadow_320_7" result="shape"/>
</filter>
<filter id="filter3_dd_320_7" x="97.4995" y="152.82" width="565.709" height="548.315" filterUnits="userSpaceOnUse" color-interpolation-filters="sRGB">
<feFlood flood-opacity="0" result="BackgroundImageFix"/>
<feColorMatrix in="SourceAlpha" type="matrix" values="0 0 0 0 0 0 0 0 0 0 0 0 0 0 0 0 0 0 127 0" result="hardAlpha"/>
<feOffset dx="3" dy="3"/>
<feGaussianBlur stdDeviation="5"/>
<feComposite in2="hardAlpha" operator="out"/>
<feColorMatrix type="matrix" values="0 0 0 0 0 0 0 0 0 0 0 0 0 0 0 0 0 0 0.25 0"/>
<feBlend mode="normal" in2="BackgroundImageFix" result="effect1_dropShadow_320_7"/>
<feColorMatrix in="SourceAlpha" type="matrix" values="0 0 0 0 0 0 0 0 0 0 0 0 0 0 0 0 0 0 127 0" result="hardAlpha"/>
<feOffset dx="-3" dy="-3"/>
<feGaussianBlur stdDeviation="5"/>
<feComposite in2="hardAlpha" operator="out"/>
<feColorMatrix type="matrix" values="0 0 0 0 0 0 0 0 0 0 0 0 0 0 0 0 0 0 0.25 0"/>
<feBlend mode="normal" in2="effect1_dropShadow_320_7" result="effect2_dropShadow_320_7"/>
<feBlend mode="normal" in="SourceGraphic" in2="effect2_dropShadow_320_7" result="shape"/>
</filter>
<filter id="filter4_dd_320_7" x="286.647" y="541.985" width="72" height="72" filterUnits="userSpaceOnUse" color-interpolation-filters="sRGB">
<feFlood flood-opacity="0" result="BackgroundImageFix"/>
<feColorMatrix in="SourceAlpha" type="matrix" values="0 0 0 0 0 0 0 0 0 0 0 0 0 0 0 0 0 0 127 0" result="hardAlpha"/>
<feOffset dx="-3" dy="-3"/>
<feGaussianBlur stdDeviation="2.5"/>
<feComposite in2="hardAlpha" operator="out"/>
<feColorMatrix type="matrix" values="0 0 0 0 0 0 0 0 0 0 0 0 0 0 0 0 0 0 0.1 0"/>
<feBlend mode="normal" in2="BackgroundImageFix" result="effect1_dropShadow_320_7"/>
<feColorMatrix in="SourceAlpha" type="matrix" values="0 0 0 0 0 0 0 0 0 0 0 0 0 0 0 0 0 0 127 0" result="hardAlpha"/>
<feOffset dx="3" dy="3"/>
<feGaussianBlur stdDeviation="2.5"/>
<feComposite in2="hardAlpha" operator="out"/>
<feColorMatrix type="matrix" values="0 0 0 0 0 0 0 0 0 0 0 0 0 0 0 0 0 0 0.1 0"/>
<feBlend mode="normal" in2="effect1_dropShadow_320_7" result="effect2_dropShadow_320_7"/>
<feBlend mode="normal" in="SourceGraphic" in2="effect2_dropShadow_320_7" result="shape"/>
</filter>
<filter id="filter5_dd_320_7" x="209.647" y="246.985" width="68.8721" height="82" filterUnits="userSpaceOnUse" color-interpolation-filters="sRGB">
<feFlood flood-opacity="0" result="BackgroundImageFix"/>
<feColorMatrix in="SourceAlpha" type="matrix" values="0 0 0 0 0 0 0 0 0 0 0 0 0 0 0 0 0 0 127 0" result="hardAlpha"/>
<feOffset dx="-3" dy="-3"/>
<feGaussianBlur stdDeviation="2.5"/>
<feComposite in2="hardAlpha" operator="out"/>
<feColorMatrix type="matrix" values="0 0 0 0 0 0 0 0 0 0 0 0 0 0 0 0 0 0 0.1 0"/>
<feBlend mode="normal" in2="BackgroundImageFix" result="effect1_dropShadow_320_7"/>
<feColorMatrix in="SourceAlpha" type="matrix" values="0 0 0 0 0 0 0 0 0 0 0 0 0 0 0 0 0 0 127 0" result="hardAlpha"/>
<feOffset dx="3" dy="3"/>
<feGaussianBlur stdDeviation="2.5"/>
<feComposite in2="hardAlpha" operator="out"/>
<feColorMatrix type="matrix" values="0 0 0 0 0 0 0 0 0 0 0 0 0 0 0 0 0 0 0.1 0"/>
<feBlend mode="normal" in2="effect1_dropShadow_320_7" result="effect2_dropShadow_320_7"/>
<feBlend mode="normal" in="SourceGraphic" in2="effect2_dropShadow_320_7" result="shape"/>
</filter>
<filter id="filter6_dd_320_7" x="171.647" y="412.985" width="89" height="78" filterUnits="userSpaceOnUse" color-interpolation-filters="sRGB">
<feFlood flood-opacity="0" result="BackgroundImageFix"/>
<feColorMatrix in="SourceAlpha" type="matrix" values="0 0 0 0 0 0 0 0 0 0 0 0 0 0 0 0 0 0 127 0" result="hardAlpha"/>
<feOffset dx="-3" dy="-3"/>
<feGaussianBlur stdDeviation="2.5"/>
<feComposite in2="hardAlpha" operator="out"/>
<feColorMatrix type="matrix" values="0 0 0 0 0 0 0 0 0 0 0 0 0 0 0 0 0 0 0.1 0"/>
<feBlend mode="normal" in2="BackgroundImageFix" result="effect1_dropShadow_320_7"/>
<feColorMatrix in="SourceAlpha" type="matrix" values="0 0 0 0 0 0 0 0 0 0 0 0 0 0 0 0 0 0 127 0" result="hardAlpha"/>
<feOffset dx="3" dy="3"/>
<feGaussianBlur stdDeviation="2.5"/>
<feComposite in2="hardAlpha" operator="out"/>
<feColorMatrix type="matrix" values="0 0 0 0 0 0 0 0 0 0 0 0 0 0 0 0 0 0 0.1 0"/>
<feBlend mode="normal" in2="effect1_dropShadow_320_7" result="effect2_dropShadow_320_7"/>
<feBlend mode="normal" in="SourceGraphic" in2="effect2_dropShadow_320_7" result="shape"/>
</filter>
<linearGradient id="paint0_linear_320_7" x1="780.147" y1="91.4846" x2="384.647" y2="480.485" gradientUnits="userSpaceOnUse">
<stop offset="0.127596" stop-color="#3BD975"/>
<stop offset="1" stop-color="#04B999"/>
</linearGradient>
<linearGradient id="paint1_linear_320_7" x1="5.64746" y1="251.485" x2="523.647" y2="724.485" gradientUnits="userSpaceOnUse">
<stop stop-color="#3BD975"/>
<stop offset="0.757191" stop-color="#04B999"/>
</linearGradient>
</defs>
</svg>
